#N canvas 442 346 891 470 12;
#X obj 46 70 inlet;
#X obj 328 176 symbol \$1;
#X obj 403 177 f \$2;
#X obj 328 245 pack s f, f 16;
#X obj 330 124 t b b;
#X msg 328 308 \$1 \$2;
#X msg 462 324 \; \$1 resize \$2;
#X obj 330 97 loadbang;
#X obj 459 73 inlet;
#X obj 403 203 sel 0;
#X obj 459 97 int;
#X obj 459 125 t b f;
#X text 32 26 first argument: table name;
#X text 33 40 second argument: buffer size;
#X obj 328 334 print mySetting;
#X obj 591 78 inlet;
#X obj 591 102 t b f;
#X obj 46 94 t l b;
#X obj 80 132 bng 15 250 50 0 empty empty empty 17 7 0 10 -262144 -1
-1;
#X obj 79 422 print \$0-help;
#X obj -45 29 loadbang;
#X obj -45 53 f \$0;
#X floatatom -45 77 5 0 0 0 - - -;
#X obj 78 370 array size;
#X msg 159 338 symbol tabella2;
#X obj 77 318 bng 15 250 50 0 empty empty empty 17 7 0 10 -262144 -1
-1;
#X msg 146 314 symbol \$1;
#X obj 300 155 bng 15 250 50 0 empty empty empty 17 7 0 10 -262144
-1 -1;
#X connect 0 0 17 0;
#X connect 1 0 3 0;
#X connect 2 0 9 0;
#X connect 3 0 5 0;
#X connect 3 0 6 0;
#X connect 3 0 26 0;
#X connect 4 0 1 0;
#X connect 4 1 2 0;
#X connect 5 0 14 0;
#X connect 7 0 4 0;
#X connect 8 0 10 0;
#X connect 9 1 3 1;
#X connect 10 0 11 0;
#X connect 11 0 1 0;
#X connect 11 1 3 1;
#X connect 15 0 16 0;
#X connect 17 1 18 0;
#X connect 20 0 21 0;
#X connect 21 0 22 0;
#X connect 23 0 19 0;
#X connect 25 0 23 0;
#X connect 26 0 23 1;
#X connect 27 0 1 0;
#X coords 0 0 1 1 85 60 0;
