#N canvas 31 466 407 239 12;
#X obj 54 19 inlet;
#X obj 54 82 & 1;
#X obj 54 109 + 1;
#X obj 54 182 outlet;
#X obj 184 183 outlet;
#X obj 54 43 t f f;
#X obj 54 148 k_SwitchOutput_2out;
#X text 51 206 pari;
#X text 178 209 dispari;
#X connect 0 0 5 0;
#X connect 1 0 2 0;
#X connect 2 0 6 0;
#X connect 5 0 1 0;
#X connect 5 1 6 1;
#X connect 6 0 3 0;
#X connect 6 1 4 0;
