#N canvas 302 460 450 321 12;
#X floatatom 35 69 0 0 0 0 - - -;
#X obj 148 149 pack;
#X floatatom 241 69 0 0 0 0 - - -;
#X obj 208 204 unpack;
#X floatatom 148 204 0 0 0 0 - - -;
#X floatatom 178 204 0 0 0 0 - - -;
#X floatatom 208 229 0 0 0 0 - - -;
#X floatatom 247 229 0 0 0 0 - - -;
#X obj 35 18 inlet;
#X text 79 16 output selector;
#X obj 239 17 inlet;
#X text 284 17 value input;
#X obj 148 179 route 1 2;
#X obj 148 276 outlet;
#X obj 210 275 outlet;
#X connect 0 0 1 0;
#X connect 1 0 12 0;
#X connect 2 0 1 1;
#X connect 3 0 6 0;
#X connect 3 1 7 0;
#X connect 4 0 13 0;
#X connect 5 0 14 0;
#X connect 8 0 0 0;
#X connect 10 0 2 0;
#X connect 12 0 4 0;
#X connect 12 1 5 0;
#X connect 12 2 3 0;
