#N canvas 201 417 450 300 12;
#X floatatom 168 190 0 0 0 0 - - -;
#X obj 168 164 + 1;
#X msg 168 60 bang;
#X msg 77 118 stop;
#X obj 168 138 float;
#X obj 168 86 trigger bang bang;
#X msg 284 118 0;
#X text 317 112 first set value to zero, f 13;
#X text 298 86 initialization is in two steps;
#X text 291 146 (before starting the metronome);
#X text 205 59 <= click here to start;
#X text 5 71 conditionally stop the metronome, f 13;
#X text 247 188 select can be abbreviated as:;
#X obj 168 30 inlet;
#X obj 168 214 outlet;
#X obj 168 112 metro 1;
#X obj 77 92 select \$1;
#X obj 296 32 inlet;
#X connect 0 0 14 0;
#X connect 1 0 0 0;
#X connect 1 0 4 1;
#X connect 1 0 16 0;
#X connect 2 0 5 0;
#X connect 3 0 15 0;
#X connect 4 0 1 0;
#X connect 5 0 15 0;
#X connect 5 1 6 0;
#X connect 6 0 4 1;
#X connect 13 0 2 0;
#X connect 15 0 4 0;
#X connect 16 0 3 0;
#X connect 17 0 15 1;
